<mxfile host="app.diagrams.net" modified="2024-03-13T08:45:49.108Z" agent="Mozilla/5.0 (Macintosh; Intel Mac OS X 10_15_7) AppleWebKit/537.36 (KHTML, like Gecko) Chrome/122.0.0.0 Safari/537.36" etag="XNNz3TLX4f6QQdUGCEA0" version="23.1.1" type="device">
  <diagram id="ngkip8CW9dk5q_ZGBN1X" name="Trang-2">
    <mxGraphModel dx="1314" dy="4339" grid="1" gridSize="10" guides="1" tooltips="1" connect="1" arrows="1" fold="1" page="1" pageScale="1" pageWidth="827" pageHeight="1169" math="0" shadow="0">
      <root>
        <mxCell id="0" />
        <mxCell id="1" parent="0" />
        <mxCell id="7nBnNuaxek-vDvKnoMcR-1" value="" style="rounded=0;whiteSpace=wrap;html=1;" parent="1" vertex="1">
          <mxGeometry x="20" y="-2730" width="2390" height="1510" as="geometry" />
        </mxCell>
        <mxCell id="7nBnNuaxek-vDvKnoMcR-2" value="" style="endArrow=diamondThin;endFill=1;endSize=24;html=1;rounded=0;exitX=0.5;exitY=0;exitDx=0;exitDy=0;" parent="1" edge="1">
          <mxGeometry width="160" relative="1" as="geometry">
            <mxPoint x="2059.545" y="-2360" as="sourcePoint" />
            <mxPoint x="2059.55" y="-2430" as="targetPoint" />
          </mxGeometry>
        </mxCell>
        <mxCell id="7nBnNuaxek-vDvKnoMcR-3" value="" style="endArrow=block;dashed=1;endFill=0;endSize=12;html=1;rounded=0;entryX=0.48;entryY=1.037;entryDx=0;entryDy=0;entryPerimeter=0;" parent="1" edge="1">
          <mxGeometry width="160" relative="1" as="geometry">
            <mxPoint x="2043" y="-2050" as="sourcePoint" />
            <mxPoint x="2043" y="-2119.9980000000005" as="targetPoint" />
          </mxGeometry>
        </mxCell>
        <mxCell id="7nBnNuaxek-vDvKnoMcR-4" value="uses" style="endArrow=open;endSize=12;dashed=1;html=1;rounded=0;entryX=1;entryY=0.5;entryDx=0;entryDy=0;fontSize=14;" parent="1" target="7nBnNuaxek-vDvKnoMcR-8" edge="1">
          <mxGeometry x="0.0408" y="-19" width="160" relative="1" as="geometry">
            <mxPoint x="1880" y="-2240" as="sourcePoint" />
            <mxPoint x="1650" y="-2230" as="targetPoint" />
            <mxPoint as="offset" />
          </mxGeometry>
        </mxCell>
        <mxCell id="7nBnNuaxek-vDvKnoMcR-5" value="Prescription" style="swimlane;fontStyle=1;align=center;verticalAlign=top;childLayout=stackLayout;horizontal=1;startSize=26;horizontalStack=0;resizeParent=1;resizeLast=0;collapsible=1;marginBottom=0;rounded=0;shadow=0;strokeWidth=3;fontSize=14;" parent="1" vertex="1">
          <mxGeometry x="1367.5" y="-2170" width="342.5" height="340" as="geometry">
            <mxRectangle x="550" y="140" width="160" height="26" as="alternateBounds" />
          </mxGeometry>
        </mxCell>
        <mxCell id="7nBnNuaxek-vDvKnoMcR-6" value="- id: String" style="text;align=left;verticalAlign=top;spacingLeft=4;spacingRight=4;overflow=hidden;rotatable=0;points=[[0,0.5],[1,0.5]];portConstraint=eastwest;fontSize=14;" parent="7nBnNuaxek-vDvKnoMcR-5" vertex="1">
          <mxGeometry y="26" width="342.5" height="26" as="geometry" />
        </mxCell>
        <mxCell id="7nBnNuaxek-vDvKnoMcR-7" value="- name: String" style="text;align=left;verticalAlign=top;spacingLeft=4;spacingRight=4;overflow=hidden;rotatable=0;points=[[0,0.5],[1,0.5]];portConstraint=eastwest;rounded=0;shadow=0;html=0;fontSize=14;" parent="7nBnNuaxek-vDvKnoMcR-5" vertex="1">
          <mxGeometry y="52" width="342.5" height="26" as="geometry" />
        </mxCell>
        <mxCell id="7nBnNuaxek-vDvKnoMcR-8" value="- note : String" style="text;align=left;verticalAlign=top;spacingLeft=4;spacingRight=4;overflow=hidden;rotatable=0;points=[[0,0.5],[1,0.5]];portConstraint=eastwest;fontSize=14;" parent="7nBnNuaxek-vDvKnoMcR-5" vertex="1">
          <mxGeometry y="78" width="342.5" height="26" as="geometry" />
        </mxCell>
        <mxCell id="7nBnNuaxek-vDvKnoMcR-9" value="- deleteFlag: Boolean&#xa;" style="text;align=left;verticalAlign=top;spacingLeft=4;spacingRight=4;overflow=hidden;rotatable=0;points=[[0,0.5],[1,0.5]];portConstraint=eastwest;rounded=0;shadow=0;html=0;fontSize=14;" parent="7nBnNuaxek-vDvKnoMcR-5" vertex="1">
          <mxGeometry y="104" width="342.5" height="32" as="geometry" />
        </mxCell>
        <mxCell id="7nBnNuaxek-vDvKnoMcR-10" value="- idSymptom: Integer&#xa;" style="text;align=left;verticalAlign=top;spacingLeft=4;spacingRight=4;overflow=hidden;rotatable=0;points=[[0,0.5],[1,0.5]];portConstraint=eastwest;rounded=0;shadow=0;html=0;fontSize=14;" parent="7nBnNuaxek-vDvKnoMcR-5" vertex="1">
          <mxGeometry y="136" width="342.5" height="32" as="geometry" />
        </mxCell>
        <mxCell id="7nBnNuaxek-vDvKnoMcR-11" value="uses" style="endArrow=open;endSize=12;dashed=1;html=1;rounded=0;fontSize=14;exitX=-0.009;exitY=0.226;exitDx=0;exitDy=0;exitPerimeter=0;" parent="7nBnNuaxek-vDvKnoMcR-5" source="7nBnNuaxek-vDvKnoMcR-32" edge="1">
          <mxGeometry x="0.0408" y="-19" width="160" relative="1" as="geometry">
            <mxPoint x="495" y="155.55" as="sourcePoint" />
            <mxPoint x="345" y="155.55" as="targetPoint" />
            <mxPoint as="offset" />
          </mxGeometry>
        </mxCell>
        <mxCell id="7nBnNuaxek-vDvKnoMcR-12" value="" style="line;html=1;strokeWidth=3;align=left;verticalAlign=middle;spacingTop=-1;spacingLeft=3;spacingRight=3;rotatable=0;labelPosition=right;points=[];portConstraint=eastwest;" parent="7nBnNuaxek-vDvKnoMcR-5" vertex="1">
          <mxGeometry y="168" width="342.5" height="8" as="geometry" />
        </mxCell>
        <mxCell id="7nBnNuaxek-vDvKnoMcR-13" value="+ Prescription ()" style="text;align=left;verticalAlign=top;spacingLeft=4;spacingRight=4;overflow=hidden;rotatable=0;points=[[0,0.5],[1,0.5]];portConstraint=eastwest;fontSize=14;" parent="7nBnNuaxek-vDvKnoMcR-5" vertex="1">
          <mxGeometry y="176" width="342.5" height="26" as="geometry" />
        </mxCell>
        <mxCell id="7nBnNuaxek-vDvKnoMcR-14" value="+ Prescription (String id, String name, String note)" style="text;align=left;verticalAlign=top;spacingLeft=4;spacingRight=4;overflow=hidden;rotatable=0;points=[[0,0.5],[1,0.5]];portConstraint=eastwest;fontSize=14;" parent="7nBnNuaxek-vDvKnoMcR-5" vertex="1">
          <mxGeometry y="202" width="342.5" height="38" as="geometry" />
        </mxCell>
        <mxCell id="7nBnNuaxek-vDvKnoMcR-15" value="+ getter/setter" style="text;align=left;verticalAlign=top;spacingLeft=4;spacingRight=4;overflow=hidden;rotatable=0;points=[[0,0.5],[1,0.5]];portConstraint=eastwest;fontSize=14;" parent="7nBnNuaxek-vDvKnoMcR-5" vertex="1">
          <mxGeometry y="240" width="342.5" height="40" as="geometry" />
        </mxCell>
        <mxCell id="7nBnNuaxek-vDvKnoMcR-16" value="" style="endArrow=diamondThin;endFill=0;endSize=24;html=1;rounded=0;exitX=0.532;exitY=0.008;exitDx=0;exitDy=0;exitPerimeter=0;" parent="1" source="7nBnNuaxek-vDvKnoMcR-5" edge="1">
          <mxGeometry width="160" relative="1" as="geometry">
            <mxPoint x="1550" y="-2390" as="sourcePoint" />
            <mxPoint x="1550" y="-2370" as="targetPoint" />
          </mxGeometry>
        </mxCell>
        <mxCell id="7nBnNuaxek-vDvKnoMcR-17" value="PrescriptionController" style="swimlane;fontStyle=1;align=center;verticalAlign=top;childLayout=stackLayout;horizontal=1;startSize=40;horizontalStack=0;resizeParent=1;resizeLast=0;collapsible=1;marginBottom=0;rounded=0;shadow=0;strokeWidth=3;fontSize=14;" parent="1" vertex="1">
          <mxGeometry x="1885" y="-2700" width="350" height="270" as="geometry">
            <mxRectangle x="230" y="140" width="160" height="26" as="alternateBounds" />
          </mxGeometry>
        </mxCell>
        <mxCell id="7nBnNuaxek-vDvKnoMcR-18" value="- prescriptionService: prescriptionService" style="text;align=left;verticalAlign=top;spacingLeft=4;spacingRight=4;overflow=hidden;rotatable=0;points=[[0,0.5],[1,0.5]];portConstraint=eastwest;fontSize=14;" parent="7nBnNuaxek-vDvKnoMcR-17" vertex="1">
          <mxGeometry y="40" width="350" height="26" as="geometry" />
        </mxCell>
        <mxCell id="7nBnNuaxek-vDvKnoMcR-19" value="" style="line;html=1;strokeWidth=3;align=left;verticalAlign=middle;spacingTop=-1;spacingLeft=3;spacingRight=3;rotatable=0;labelPosition=right;points=[];portConstraint=eastwest;" parent="7nBnNuaxek-vDvKnoMcR-17" vertex="1">
          <mxGeometry y="66" width="350" height="8" as="geometry" />
        </mxCell>
        <mxCell id="7nBnNuaxek-vDvKnoMcR-20" value="+ getAllPrescription (): List&lt;Prescription&gt;" style="text;align=left;verticalAlign=top;spacingLeft=4;spacingRight=4;overflow=hidden;rotatable=0;points=[[0,0.5],[1,0.5]];portConstraint=eastwest;strokeWidth=1;fontSize=14;" parent="7nBnNuaxek-vDvKnoMcR-17" vertex="1">
          <mxGeometry y="74" width="350" height="26" as="geometry" />
        </mxCell>
        <mxCell id="7nBnNuaxek-vDvKnoMcR-21" value="+ findPrescriptionById (String id): Prescription" style="text;align=left;verticalAlign=top;spacingLeft=4;spacingRight=4;overflow=hidden;rotatable=0;points=[[0,0.5],[1,0.5]];portConstraint=eastwest;strokeWidth=1;fontSize=14;" parent="7nBnNuaxek-vDvKnoMcR-17" vertex="1">
          <mxGeometry y="100" width="350" height="26" as="geometry" />
        </mxCell>
        <mxCell id="7nBnNuaxek-vDvKnoMcR-22" value=" + deletePrescription (String id): void" style="text;align=left;verticalAlign=top;spacingLeft=4;spacingRight=4;overflow=hidden;rotatable=0;points=[[0,0.5],[1,0.5]];portConstraint=eastwest;strokeWidth=1;fontSize=14;" parent="7nBnNuaxek-vDvKnoMcR-17" vertex="1">
          <mxGeometry y="126" width="350" height="26" as="geometry" />
        </mxCell>
        <mxCell id="7nBnNuaxek-vDvKnoMcR-23" value=" + savePrescription (Prescription prescription): void" style="text;align=left;verticalAlign=top;spacingLeft=4;spacingRight=4;overflow=hidden;rotatable=0;points=[[0,0.5],[1,0.5]];portConstraint=eastwest;strokeWidth=1;fontSize=14;" parent="7nBnNuaxek-vDvKnoMcR-17" vertex="1">
          <mxGeometry y="152" width="350" height="26" as="geometry" />
        </mxCell>
        <mxCell id="7nBnNuaxek-vDvKnoMcR-24" value=" + updatePrescription (Prescription prescription): void" style="text;align=left;verticalAlign=top;spacingLeft=4;spacingRight=4;overflow=hidden;rotatable=0;points=[[0,0.5],[1,0.5]];portConstraint=eastwest;strokeWidth=1;fontSize=14;" parent="7nBnNuaxek-vDvKnoMcR-17" vertex="1">
          <mxGeometry y="178" width="350" height="26" as="geometry" />
        </mxCell>
        <mxCell id="7nBnNuaxek-vDvKnoMcR-25" value="&lt;p style=&quot;line-height: 86%;&quot;&gt;&lt;font style=&quot;font-size: 14px;&quot;&gt;&amp;lt;&amp;lt;interface&amp;gt;&amp;gt;&lt;/font&gt;&lt;/p&gt;&lt;p style=&quot;line-height: 86%;&quot;&gt;&lt;font style=&quot;font-size: 14px;&quot;&gt;&lt;b&gt;PrescriptionService&lt;/b&gt;&lt;br&gt;&lt;/font&gt;&lt;/p&gt;" style="swimlane;fontStyle=0;childLayout=stackLayout;horizontal=1;startSize=50;fillColor=none;horizontalStack=0;resizeParent=1;resizeParentMax=0;resizeLast=0;collapsible=1;marginBottom=0;html=1;strokeWidth=3;" parent="1" vertex="1">
          <mxGeometry x="1885" y="-2360" width="350" height="290" as="geometry">
            <mxRectangle x="960" y="620" width="160" height="60" as="alternateBounds" />
          </mxGeometry>
        </mxCell>
        <mxCell id="5s_oKDHctYmKp3dNpC3K-5" value="" style="line;html=1;strokeWidth=3;align=left;verticalAlign=middle;spacingTop=-1;spacingLeft=3;spacingRight=3;rotatable=0;labelPosition=right;points=[];portConstraint=eastwest;" vertex="1" parent="7nBnNuaxek-vDvKnoMcR-25">
          <mxGeometry y="50" width="350" height="50" as="geometry" />
        </mxCell>
        <mxCell id="7nBnNuaxek-vDvKnoMcR-27" value="+ findById (String id): Prescription" style="text;strokeColor=none;fillColor=none;align=left;verticalAlign=top;spacingLeft=4;spacingRight=4;overflow=hidden;rotatable=0;points=[[0,0.5],[1,0.5]];portConstraint=eastwest;whiteSpace=wrap;html=1;fontSize=14;" parent="7nBnNuaxek-vDvKnoMcR-25" vertex="1">
          <mxGeometry y="100" width="350" height="26" as="geometry" />
        </mxCell>
        <mxCell id="7nBnNuaxek-vDvKnoMcR-28" value="+ delete (String id): void" style="text;strokeColor=none;fillColor=none;align=left;verticalAlign=top;spacingLeft=4;spacingRight=4;overflow=hidden;rotatable=0;points=[[0,0.5],[1,0.5]];portConstraint=eastwest;whiteSpace=wrap;html=1;fontSize=14;" parent="7nBnNuaxek-vDvKnoMcR-25" vertex="1">
          <mxGeometry y="126" width="350" height="26" as="geometry" />
        </mxCell>
        <mxCell id="7nBnNuaxek-vDvKnoMcR-29" value="+ save (Prescription prescription): void" style="text;strokeColor=none;fillColor=none;align=left;verticalAlign=top;spacingLeft=4;spacingRight=4;overflow=hidden;rotatable=0;points=[[0,0.5],[1,0.5]];portConstraint=eastwest;whiteSpace=wrap;html=1;fontSize=14;" parent="7nBnNuaxek-vDvKnoMcR-25" vertex="1">
          <mxGeometry y="152" width="350" height="26" as="geometry" />
        </mxCell>
        <mxCell id="7nBnNuaxek-vDvKnoMcR-26" value="+ findAll (): List&amp;lt;Prescription&amp;gt;" style="text;strokeColor=none;fillColor=none;align=left;verticalAlign=top;spacingLeft=4;spacingRight=4;overflow=hidden;rotatable=0;points=[[0,0.5],[1,0.5]];portConstraint=eastwest;whiteSpace=wrap;html=1;fontSize=14;" parent="7nBnNuaxek-vDvKnoMcR-25" vertex="1">
          <mxGeometry y="178" width="350" height="26" as="geometry" />
        </mxCell>
        <mxCell id="7nBnNuaxek-vDvKnoMcR-30" value="+ update (Prescription prescription): void" style="text;strokeColor=none;fillColor=none;align=left;verticalAlign=top;spacingLeft=4;spacingRight=4;overflow=hidden;rotatable=0;points=[[0,0.5],[1,0.5]];portConstraint=eastwest;whiteSpace=wrap;html=1;fontSize=14;" parent="7nBnNuaxek-vDvKnoMcR-25" vertex="1">
          <mxGeometry y="204" width="350" height="86" as="geometry" />
        </mxCell>
        <mxCell id="7nBnNuaxek-vDvKnoMcR-31" value="PrescriptionServiceImpl" style="swimlane;fontStyle=1;align=center;verticalAlign=top;childLayout=stackLayout;horizontal=1;startSize=26;horizontalStack=0;resizeParent=1;resizeLast=0;collapsible=1;marginBottom=0;rounded=0;shadow=0;strokeWidth=3;" parent="1" vertex="1">
          <mxGeometry x="1880" y="-2045.5" width="360" height="215.5" as="geometry">
            <mxRectangle x="230" y="140" width="160" height="26" as="alternateBounds" />
          </mxGeometry>
        </mxCell>
        <mxCell id="7nBnNuaxek-vDvKnoMcR-32" value="- prescriptionRepository: PrescriptionRepository" style="text;align=left;verticalAlign=top;spacingLeft=4;spacingRight=4;overflow=hidden;rotatable=0;points=[[0,0.5],[1,0.5]];portConstraint=eastwest;fontSize=14;" parent="7nBnNuaxek-vDvKnoMcR-31" vertex="1">
          <mxGeometry y="26" width="360" height="26" as="geometry" />
        </mxCell>
        <mxCell id="7nBnNuaxek-vDvKnoMcR-33" value="" style="line;html=1;strokeWidth=3;align=left;verticalAlign=middle;spacingTop=-1;spacingLeft=3;spacingRight=3;rotatable=0;labelPosition=right;points=[];portConstraint=eastwest;" parent="7nBnNuaxek-vDvKnoMcR-31" vertex="1">
          <mxGeometry y="52" width="360" height="8" as="geometry" />
        </mxCell>
        <mxCell id="7nBnNuaxek-vDvKnoMcR-34" value=" + findAll (): List&lt;Prescription&gt;" style="text;align=left;verticalAlign=top;spacingLeft=4;spacingRight=4;overflow=hidden;rotatable=0;points=[[0,0.5],[1,0.5]];portConstraint=eastwest;strokeWidth=1;fontSize=14;" parent="7nBnNuaxek-vDvKnoMcR-31" vertex="1">
          <mxGeometry y="60" width="360" height="26" as="geometry" />
        </mxCell>
        <mxCell id="7nBnNuaxek-vDvKnoMcR-35" value=" + findById (String id): Prescription" style="text;align=left;verticalAlign=top;spacingLeft=4;spacingRight=4;overflow=hidden;rotatable=0;points=[[0,0.5],[1,0.5]];portConstraint=eastwest;strokeWidth=1;fontSize=14;" parent="7nBnNuaxek-vDvKnoMcR-31" vertex="1">
          <mxGeometry y="86" width="360" height="26" as="geometry" />
        </mxCell>
        <mxCell id="7nBnNuaxek-vDvKnoMcR-36" value=" + delete (String id): void" style="text;align=left;verticalAlign=top;spacingLeft=4;spacingRight=4;overflow=hidden;rotatable=0;points=[[0,0.5],[1,0.5]];portConstraint=eastwest;strokeWidth=1;fontSize=14;" parent="7nBnNuaxek-vDvKnoMcR-31" vertex="1">
          <mxGeometry y="112" width="360" height="26" as="geometry" />
        </mxCell>
        <mxCell id="7nBnNuaxek-vDvKnoMcR-37" value=" + save (Prescription prescription): void" style="text;align=left;verticalAlign=top;spacingLeft=4;spacingRight=4;overflow=hidden;rotatable=0;points=[[0,0.5],[1,0.5]];portConstraint=eastwest;strokeWidth=1;fontSize=14;" parent="7nBnNuaxek-vDvKnoMcR-31" vertex="1">
          <mxGeometry y="138" width="360" height="26" as="geometry" />
        </mxCell>
        <mxCell id="7nBnNuaxek-vDvKnoMcR-38" value=" + update (Prescription prescription): void" style="text;align=left;verticalAlign=top;spacingLeft=4;spacingRight=4;overflow=hidden;rotatable=0;points=[[0,0.5],[1,0.5]];portConstraint=eastwest;strokeWidth=1;fontSize=14;" parent="7nBnNuaxek-vDvKnoMcR-31" vertex="1">
          <mxGeometry y="164" width="360" height="26" as="geometry" />
        </mxCell>
        <mxCell id="7nBnNuaxek-vDvKnoMcR-39" value="&lt;p style=&quot;line-height: 86%;&quot;&gt;&lt;font style=&quot;font-size: 14px;&quot;&gt;&amp;lt;&amp;lt;interface&amp;gt;&amp;gt;&lt;br&gt;&lt;b&gt;PrescriptionRepository&amp;lt;Prescription, String&amp;gt;&lt;/b&gt;&lt;br&gt;&lt;/font&gt;&lt;/p&gt;" style="swimlane;fontStyle=0;childLayout=stackLayout;horizontal=1;startSize=50;fillColor=none;horizontalStack=0;resizeParent=1;resizeParentMax=0;resizeLast=0;collapsible=1;marginBottom=0;html=1;strokeWidth=3;" parent="1" vertex="1">
          <mxGeometry x="1880" y="-1710" width="360" height="290" as="geometry">
            <mxRectangle x="960" y="620" width="160" height="60" as="alternateBounds" />
          </mxGeometry>
        </mxCell>
        <mxCell id="5s_oKDHctYmKp3dNpC3K-4" value="" style="line;html=1;strokeWidth=3;align=left;verticalAlign=middle;spacingTop=-1;spacingLeft=3;spacingRight=3;rotatable=0;labelPosition=right;points=[];portConstraint=eastwest;" vertex="1" parent="7nBnNuaxek-vDvKnoMcR-39">
          <mxGeometry y="50" width="360" height="50" as="geometry" />
        </mxCell>
        <mxCell id="7nBnNuaxek-vDvKnoMcR-41" value="+ findById (String id): Prescription" style="text;strokeColor=none;fillColor=none;align=left;verticalAlign=top;spacingLeft=4;spacingRight=4;overflow=hidden;rotatable=0;points=[[0,0.5],[1,0.5]];portConstraint=eastwest;whiteSpace=wrap;html=1;fontSize=14;" parent="7nBnNuaxek-vDvKnoMcR-39" vertex="1">
          <mxGeometry y="100" width="360" height="26" as="geometry" />
        </mxCell>
        <mxCell id="7nBnNuaxek-vDvKnoMcR-40" value="+ findAll (): List&amp;lt;Prescription&amp;gt;" style="text;strokeColor=none;fillColor=none;align=left;verticalAlign=top;spacingLeft=4;spacingRight=4;overflow=hidden;rotatable=0;points=[[0,0.5],[1,0.5]];portConstraint=eastwest;whiteSpace=wrap;html=1;fontSize=14;" parent="7nBnNuaxek-vDvKnoMcR-39" vertex="1">
          <mxGeometry y="126" width="360" height="26" as="geometry" />
        </mxCell>
        <mxCell id="7nBnNuaxek-vDvKnoMcR-42" value="+ delete (String id): void" style="text;strokeColor=none;fillColor=none;align=left;verticalAlign=top;spacingLeft=4;spacingRight=4;overflow=hidden;rotatable=0;points=[[0,0.5],[1,0.5]];portConstraint=eastwest;whiteSpace=wrap;html=1;fontSize=14;" parent="7nBnNuaxek-vDvKnoMcR-39" vertex="1">
          <mxGeometry y="152" width="360" height="26" as="geometry" />
        </mxCell>
        <mxCell id="7nBnNuaxek-vDvKnoMcR-43" value="+ save (Prescription prescription): void" style="text;strokeColor=none;fillColor=none;align=left;verticalAlign=top;spacingLeft=4;spacingRight=4;overflow=hidden;rotatable=0;points=[[0,0.5],[1,0.5]];portConstraint=eastwest;whiteSpace=wrap;html=1;fontSize=14;" parent="7nBnNuaxek-vDvKnoMcR-39" vertex="1">
          <mxGeometry y="178" width="360" height="26" as="geometry" />
        </mxCell>
        <mxCell id="7nBnNuaxek-vDvKnoMcR-44" value="+ update (Prescription prescription): void" style="text;strokeColor=none;fillColor=none;align=left;verticalAlign=top;spacingLeft=4;spacingRight=4;overflow=hidden;rotatable=0;points=[[0,0.5],[1,0.5]];portConstraint=eastwest;whiteSpace=wrap;html=1;fontSize=14;" parent="7nBnNuaxek-vDvKnoMcR-39" vertex="1">
          <mxGeometry y="204" width="360" height="86" as="geometry" />
        </mxCell>
        <mxCell id="7nBnNuaxek-vDvKnoMcR-45" value="DetailPrescription" style="swimlane;fontStyle=1;align=center;verticalAlign=top;childLayout=stackLayout;horizontal=1;startSize=26;horizontalStack=0;resizeParent=1;resizeLast=0;collapsible=1;marginBottom=0;rounded=0;shadow=0;strokeWidth=3;fontSize=14;" parent="1" vertex="1">
          <mxGeometry x="690" y="-2185" width="450" height="370" as="geometry">
            <mxRectangle x="550" y="140" width="160" height="26" as="alternateBounds" />
          </mxGeometry>
        </mxCell>
        <mxCell id="7nBnNuaxek-vDvKnoMcR-46" value="- idPrescription: String" style="text;align=left;verticalAlign=top;spacingLeft=4;spacingRight=4;overflow=hidden;rotatable=0;points=[[0,0.5],[1,0.5]];portConstraint=eastwest;fontSize=14;" parent="7nBnNuaxek-vDvKnoMcR-45" vertex="1">
          <mxGeometry y="26" width="450" height="26" as="geometry" />
        </mxCell>
        <mxCell id="7nBnNuaxek-vDvKnoMcR-47" value="- idMedicine: String" style="text;align=left;verticalAlign=top;spacingLeft=4;spacingRight=4;overflow=hidden;rotatable=0;points=[[0,0.5],[1,0.5]];portConstraint=eastwest;fontSize=14;" parent="7nBnNuaxek-vDvKnoMcR-45" vertex="1">
          <mxGeometry y="52" width="450" height="26" as="geometry" />
        </mxCell>
        <mxCell id="7nBnNuaxek-vDvKnoMcR-48" value="- name: String" style="text;align=left;verticalAlign=top;spacingLeft=4;spacingRight=4;overflow=hidden;rotatable=0;points=[[0,0.5],[1,0.5]];portConstraint=eastwest;rounded=0;shadow=0;html=0;fontSize=14;" parent="7nBnNuaxek-vDvKnoMcR-45" vertex="1">
          <mxGeometry y="78" width="450" height="26" as="geometry" />
        </mxCell>
        <mxCell id="7nBnNuaxek-vDvKnoMcR-49" value="- treatmentPeriod: Integer&#xa;&#xa;" style="text;align=left;verticalAlign=top;spacingLeft=4;spacingRight=4;overflow=hidden;rotatable=0;points=[[0,0.5],[1,0.5]];portConstraint=eastwest;rounded=0;shadow=0;html=0;fontSize=14;" parent="7nBnNuaxek-vDvKnoMcR-45" vertex="1">
          <mxGeometry y="104" width="450" height="32" as="geometry" />
        </mxCell>
        <mxCell id="7nBnNuaxek-vDvKnoMcR-50" value="- times: Integer&#xa;&#xa;" style="text;align=left;verticalAlign=top;spacingLeft=4;spacingRight=4;overflow=hidden;rotatable=0;points=[[0,0.5],[1,0.5]];portConstraint=eastwest;rounded=0;shadow=0;html=0;fontSize=14;" parent="7nBnNuaxek-vDvKnoMcR-45" vertex="1">
          <mxGeometry y="136" width="450" height="32" as="geometry" />
        </mxCell>
        <mxCell id="7nBnNuaxek-vDvKnoMcR-51" value="- quantity: Integer&#xa;" style="text;align=left;verticalAlign=top;spacingLeft=4;spacingRight=4;overflow=hidden;rotatable=0;points=[[0,0.5],[1,0.5]];portConstraint=eastwest;rounded=0;shadow=0;html=0;fontSize=14;" parent="7nBnNuaxek-vDvKnoMcR-45" vertex="1">
          <mxGeometry y="168" width="450" height="32" as="geometry" />
        </mxCell>
        <mxCell id="7nBnNuaxek-vDvKnoMcR-52" value="- quantityPerTimes: Integer&#xa;" style="text;align=left;verticalAlign=top;spacingLeft=4;spacingRight=4;overflow=hidden;rotatable=0;points=[[0,0.5],[1,0.5]];portConstraint=eastwest;rounded=0;shadow=0;html=0;fontSize=14;" parent="7nBnNuaxek-vDvKnoMcR-45" vertex="1">
          <mxGeometry y="200" width="450" height="32" as="geometry" />
        </mxCell>
        <mxCell id="7nBnNuaxek-vDvKnoMcR-53" value="" style="line;html=1;strokeWidth=3;align=left;verticalAlign=middle;spacingTop=-1;spacingLeft=3;spacingRight=3;rotatable=0;labelPosition=right;points=[];portConstraint=eastwest;" parent="7nBnNuaxek-vDvKnoMcR-45" vertex="1">
          <mxGeometry y="232" width="450" height="8" as="geometry" />
        </mxCell>
        <mxCell id="7nBnNuaxek-vDvKnoMcR-54" value="+ Detail Prescription ()" style="text;align=left;verticalAlign=top;spacingLeft=4;spacingRight=4;overflow=hidden;rotatable=0;points=[[0,0.5],[1,0.5]];portConstraint=eastwest;fontSize=14;" parent="7nBnNuaxek-vDvKnoMcR-45" vertex="1">
          <mxGeometry y="240" width="450" height="26" as="geometry" />
        </mxCell>
        <mxCell id="7nBnNuaxek-vDvKnoMcR-55" value="+ Detail Prescription (String id_prescription,  String name, Integer&#xa;treatment_period, Integer times, Integer quantity, Integer&#xa; quantity_per_times )" style="text;align=left;verticalAlign=top;spacingLeft=4;spacingRight=4;overflow=hidden;rotatable=0;points=[[0,0.5],[1,0.5]];portConstraint=eastwest;fontSize=14;" parent="7nBnNuaxek-vDvKnoMcR-45" vertex="1">
          <mxGeometry y="266" width="450" height="64" as="geometry" />
        </mxCell>
        <mxCell id="7nBnNuaxek-vDvKnoMcR-56" value="+ getter/setter" style="text;align=left;verticalAlign=top;spacingLeft=4;spacingRight=4;overflow=hidden;rotatable=0;points=[[0,0.5],[1,0.5]];portConstraint=eastwest;fontSize=14;" parent="7nBnNuaxek-vDvKnoMcR-45" vertex="1">
          <mxGeometry y="330" width="450" height="26" as="geometry" />
        </mxCell>
        <mxCell id="7nBnNuaxek-vDvKnoMcR-57" value="DetailPrescriptionController" style="swimlane;fontStyle=1;align=center;verticalAlign=top;childLayout=stackLayout;horizontal=1;startSize=30;horizontalStack=0;resizeParent=1;resizeLast=0;collapsible=1;marginBottom=0;rounded=0;shadow=0;strokeWidth=3;fontSize=14;" parent="1" vertex="1">
          <mxGeometry x="110" y="-2660" width="450" height="270" as="geometry">
            <mxRectangle x="230" y="140" width="160" height="26" as="alternateBounds" />
          </mxGeometry>
        </mxCell>
        <mxCell id="7nBnNuaxek-vDvKnoMcR-58" value="- detailPrescriptionService: detailPrescriptionService" style="text;align=left;verticalAlign=top;spacingLeft=4;spacingRight=4;overflow=hidden;rotatable=0;points=[[0,0.5],[1,0.5]];portConstraint=eastwest;fontSize=14;" parent="7nBnNuaxek-vDvKnoMcR-57" vertex="1">
          <mxGeometry y="30" width="450" height="26" as="geometry" />
        </mxCell>
        <mxCell id="7nBnNuaxek-vDvKnoMcR-59" value="" style="line;html=1;strokeWidth=3;align=left;verticalAlign=middle;spacingTop=-1;spacingLeft=3;spacingRight=3;rotatable=0;labelPosition=right;points=[];portConstraint=eastwest;" parent="7nBnNuaxek-vDvKnoMcR-57" vertex="1">
          <mxGeometry y="56" width="450" height="8" as="geometry" />
        </mxCell>
        <mxCell id="7nBnNuaxek-vDvKnoMcR-60" value=" + findDetailPrescriptionById (String id): DetailPrescription" style="text;align=left;verticalAlign=top;spacingLeft=4;spacingRight=4;overflow=hidden;rotatable=0;points=[[0,0.5],[1,0.5]];portConstraint=eastwest;strokeWidth=1;fontSize=14;" parent="7nBnNuaxek-vDvKnoMcR-57" vertex="1">
          <mxGeometry y="64" width="450" height="26" as="geometry" />
        </mxCell>
        <mxCell id="7nBnNuaxek-vDvKnoMcR-61" value=" + deleteDetailPrescription (String id): void" style="text;align=left;verticalAlign=top;spacingLeft=4;spacingRight=4;overflow=hidden;rotatable=0;points=[[0,0.5],[1,0.5]];portConstraint=eastwest;strokeWidth=1;fontSize=14;" parent="7nBnNuaxek-vDvKnoMcR-57" vertex="1">
          <mxGeometry y="90" width="450" height="26" as="geometry" />
        </mxCell>
        <mxCell id="7nBnNuaxek-vDvKnoMcR-62" value=" + saveDetailPrescription (DetailPrescription detailPrescription): void" style="text;align=left;verticalAlign=top;spacingLeft=4;spacingRight=4;overflow=hidden;rotatable=0;points=[[0,0.5],[1,0.5]];portConstraint=eastwest;strokeWidth=1;fontSize=14;" parent="7nBnNuaxek-vDvKnoMcR-57" vertex="1">
          <mxGeometry y="116" width="450" height="26" as="geometry" />
        </mxCell>
        <mxCell id="7nBnNuaxek-vDvKnoMcR-63" value=" + updateDetailPrescription (DetailPrescription detailPrescription): void" style="text;align=left;verticalAlign=top;spacingLeft=4;spacingRight=4;overflow=hidden;rotatable=0;points=[[0,0.5],[1,0.5]];portConstraint=eastwest;strokeWidth=1;fontSize=14;" parent="7nBnNuaxek-vDvKnoMcR-57" vertex="1">
          <mxGeometry y="142" width="450" height="26" as="geometry" />
        </mxCell>
        <mxCell id="7nBnNuaxek-vDvKnoMcR-64" value="Symptom" style="swimlane;fontStyle=1;align=center;verticalAlign=top;childLayout=stackLayout;horizontal=1;startSize=26;horizontalStack=0;resizeParent=1;resizeLast=0;collapsible=1;marginBottom=0;rounded=0;shadow=0;strokeWidth=3;fontSize=14;" parent="1" vertex="1">
          <mxGeometry x="1368.75" y="-2540" width="342.5" height="170" as="geometry">
            <mxRectangle x="550" y="140" width="160" height="26" as="alternateBounds" />
          </mxGeometry>
        </mxCell>
        <mxCell id="7nBnNuaxek-vDvKnoMcR-65" value="- id: Integer" style="text;align=left;verticalAlign=top;spacingLeft=4;spacingRight=4;overflow=hidden;rotatable=0;points=[[0,0.5],[1,0.5]];portConstraint=eastwest;fontSize=14;" parent="7nBnNuaxek-vDvKnoMcR-64" vertex="1">
          <mxGeometry y="26" width="342.5" height="26" as="geometry" />
        </mxCell>
        <mxCell id="7nBnNuaxek-vDvKnoMcR-66" value="- name: String" style="text;align=left;verticalAlign=top;spacingLeft=4;spacingRight=4;overflow=hidden;rotatable=0;points=[[0,0.5],[1,0.5]];portConstraint=eastwest;rounded=0;shadow=0;html=0;fontSize=14;" parent="7nBnNuaxek-vDvKnoMcR-64" vertex="1">
          <mxGeometry y="52" width="342.5" height="26" as="geometry" />
        </mxCell>
        <mxCell id="7nBnNuaxek-vDvKnoMcR-67" value="" style="line;html=1;strokeWidth=3;align=left;verticalAlign=middle;spacingTop=-1;spacingLeft=3;spacingRight=3;rotatable=0;labelPosition=right;points=[];portConstraint=eastwest;" parent="7nBnNuaxek-vDvKnoMcR-64" vertex="1">
          <mxGeometry y="78" width="342.5" height="8" as="geometry" />
        </mxCell>
        <mxCell id="7nBnNuaxek-vDvKnoMcR-68" value="+ Symptom ()" style="text;align=left;verticalAlign=top;spacingLeft=4;spacingRight=4;overflow=hidden;rotatable=0;points=[[0,0.5],[1,0.5]];portConstraint=eastwest;fontSize=14;" parent="7nBnNuaxek-vDvKnoMcR-64" vertex="1">
          <mxGeometry y="86" width="342.5" height="26" as="geometry" />
        </mxCell>
        <mxCell id="GgIP_aa9oJBYuPaGzY_q-1" value="+ getter/setter" style="text;align=left;verticalAlign=top;spacingLeft=4;spacingRight=4;overflow=hidden;rotatable=0;points=[[0,0.5],[1,0.5]];portConstraint=eastwest;fontSize=14;" parent="7nBnNuaxek-vDvKnoMcR-64" vertex="1">
          <mxGeometry y="112" width="342.5" height="26" as="geometry" />
        </mxCell>
        <mxCell id="7nBnNuaxek-vDvKnoMcR-69" value="is" style="endArrow=block;endSize=16;endFill=0;html=1;rounded=0;entryX=0.549;entryY=-0.028;entryDx=0;entryDy=0;entryPerimeter=0;fontSize=16;" parent="1" target="7nBnNuaxek-vDvKnoMcR-90" edge="1">
          <mxGeometry x="0.0989" y="-14" width="160" relative="1" as="geometry">
            <mxPoint x="1930" y="-1470" as="sourcePoint" />
            <mxPoint x="1560" y="-1370" as="targetPoint" />
            <mxPoint as="offset" />
          </mxGeometry>
        </mxCell>
        <mxCell id="7nBnNuaxek-vDvKnoMcR-70" value="DetailPrescriptionServiceImpl" style="swimlane;fontStyle=1;align=center;verticalAlign=top;childLayout=stackLayout;horizontal=1;startSize=26;horizontalStack=0;resizeParent=1;resizeLast=0;collapsible=1;marginBottom=0;rounded=0;shadow=0;strokeWidth=3;fontSize=14;" parent="1" vertex="1">
          <mxGeometry x="110" y="-1990" width="450" height="220" as="geometry">
            <mxRectangle x="230" y="140" width="160" height="26" as="alternateBounds" />
          </mxGeometry>
        </mxCell>
        <mxCell id="7nBnNuaxek-vDvKnoMcR-71" value="- detailPrescriptionRepository: DetailPrescriptionRepository" style="text;align=left;verticalAlign=top;spacingLeft=4;spacingRight=4;overflow=hidden;rotatable=0;points=[[0,0.5],[1,0.5]];portConstraint=eastwest;fontSize=14;" parent="7nBnNuaxek-vDvKnoMcR-70" vertex="1">
          <mxGeometry y="26" width="450" height="26" as="geometry" />
        </mxCell>
        <mxCell id="7nBnNuaxek-vDvKnoMcR-72" value="" style="line;html=1;strokeWidth=3;align=left;verticalAlign=middle;spacingTop=-1;spacingLeft=3;spacingRight=3;rotatable=0;labelPosition=right;points=[];portConstraint=eastwest;" parent="7nBnNuaxek-vDvKnoMcR-70" vertex="1">
          <mxGeometry y="52" width="450" height="8" as="geometry" />
        </mxCell>
        <mxCell id="7nBnNuaxek-vDvKnoMcR-73" value="+  findById (String id): DetailPrescription" style="text;align=left;verticalAlign=top;spacingLeft=4;spacingRight=4;overflow=hidden;rotatable=0;points=[[0,0.5],[1,0.5]];portConstraint=eastwest;strokeWidth=1;fontSize=14;" parent="7nBnNuaxek-vDvKnoMcR-70" vertex="1">
          <mxGeometry y="60" width="450" height="26" as="geometry" />
        </mxCell>
        <mxCell id="7nBnNuaxek-vDvKnoMcR-74" value=" + delete (String id): void" style="text;align=left;verticalAlign=top;spacingLeft=4;spacingRight=4;overflow=hidden;rotatable=0;points=[[0,0.5],[1,0.5]];portConstraint=eastwest;strokeWidth=1;fontSize=14;" parent="7nBnNuaxek-vDvKnoMcR-70" vertex="1">
          <mxGeometry y="86" width="450" height="26" as="geometry" />
        </mxCell>
        <mxCell id="7nBnNuaxek-vDvKnoMcR-75" value=" + save (DetailPrescription detailPrescription): void" style="text;align=left;verticalAlign=top;spacingLeft=4;spacingRight=4;overflow=hidden;rotatable=0;points=[[0,0.5],[1,0.5]];portConstraint=eastwest;strokeWidth=1;fontSize=14;" parent="7nBnNuaxek-vDvKnoMcR-70" vertex="1">
          <mxGeometry y="112" width="450" height="26" as="geometry" />
        </mxCell>
        <mxCell id="7nBnNuaxek-vDvKnoMcR-76" value=" + update (DetailPrescription detailPrescription): void" style="text;align=left;verticalAlign=top;spacingLeft=4;spacingRight=4;overflow=hidden;rotatable=0;points=[[0,0.5],[1,0.5]];portConstraint=eastwest;strokeWidth=1;fontSize=14;" parent="7nBnNuaxek-vDvKnoMcR-70" vertex="1">
          <mxGeometry y="138" width="450" height="26" as="geometry" />
        </mxCell>
        <mxCell id="7nBnNuaxek-vDvKnoMcR-77" value="&lt;p style=&quot;line-height: 86%;&quot;&gt;&lt;font style=&quot;font-size: 14px;&quot;&gt;&amp;lt;&amp;lt;interface&amp;gt;&amp;gt;&lt;/font&gt;&lt;/p&gt;&lt;p style=&quot;line-height: 86%;&quot;&gt;&lt;font style=&quot;font-size: 14px;&quot;&gt;&lt;b&gt;DetailPrescriptionService&lt;/b&gt;&lt;br&gt;&lt;/font&gt;&lt;/p&gt;" style="swimlane;fontStyle=0;childLayout=stackLayout;horizontal=1;startSize=40;fillColor=none;horizontalStack=0;resizeParent=1;resizeParentMax=0;resizeLast=0;collapsible=1;marginBottom=0;html=1;strokeWidth=3;" parent="1" vertex="1">
          <mxGeometry x="110" y="-2280" width="450" height="234" as="geometry">
            <mxRectangle x="960" y="620" width="160" height="60" as="alternateBounds" />
          </mxGeometry>
        </mxCell>
        <mxCell id="5s_oKDHctYmKp3dNpC3K-1" value="" style="line;html=1;strokeWidth=3;align=left;verticalAlign=middle;spacingTop=-1;spacingLeft=3;spacingRight=3;rotatable=0;labelPosition=right;points=[];portConstraint=eastwest;" vertex="1" parent="7nBnNuaxek-vDvKnoMcR-77">
          <mxGeometry y="40" width="450" height="50" as="geometry" />
        </mxCell>
        <mxCell id="7nBnNuaxek-vDvKnoMcR-79" value="+ delete (String id): void" style="text;strokeColor=none;fillColor=none;align=left;verticalAlign=top;spacingLeft=4;spacingRight=4;overflow=hidden;rotatable=0;points=[[0,0.5],[1,0.5]];portConstraint=eastwest;whiteSpace=wrap;html=1;fontSize=14;" parent="7nBnNuaxek-vDvKnoMcR-77" vertex="1">
          <mxGeometry y="90" width="450" height="26" as="geometry" />
        </mxCell>
        <mxCell id="7nBnNuaxek-vDvKnoMcR-80" value="+ save (DetailPrescription detailPrescription): void" style="text;strokeColor=none;fillColor=none;align=left;verticalAlign=top;spacingLeft=4;spacingRight=4;overflow=hidden;rotatable=0;points=[[0,0.5],[1,0.5]];portConstraint=eastwest;whiteSpace=wrap;html=1;fontSize=14;" parent="7nBnNuaxek-vDvKnoMcR-77" vertex="1">
          <mxGeometry y="116" width="450" height="26" as="geometry" />
        </mxCell>
        <mxCell id="5s_oKDHctYmKp3dNpC3K-2" value="+ findById (String id): DetailPrescription" style="text;strokeColor=none;fillColor=none;align=left;verticalAlign=top;spacingLeft=4;spacingRight=4;overflow=hidden;rotatable=0;points=[[0,0.5],[1,0.5]];portConstraint=eastwest;whiteSpace=wrap;html=1;fontSize=14;" vertex="1" parent="7nBnNuaxek-vDvKnoMcR-77">
          <mxGeometry y="142" width="450" height="26" as="geometry" />
        </mxCell>
        <mxCell id="7nBnNuaxek-vDvKnoMcR-81" value="+ update (DetailPrescription detailPrescription): void" style="text;strokeColor=none;fillColor=none;align=left;verticalAlign=top;spacingLeft=4;spacingRight=4;overflow=hidden;rotatable=0;points=[[0,0.5],[1,0.5]];portConstraint=eastwest;whiteSpace=wrap;html=1;fontSize=14;" parent="7nBnNuaxek-vDvKnoMcR-77" vertex="1">
          <mxGeometry y="168" width="450" height="66" as="geometry" />
        </mxCell>
        <mxCell id="7nBnNuaxek-vDvKnoMcR-82" value="has" style="text;html=1;strokeColor=none;fillColor=none;align=center;verticalAlign=middle;whiteSpace=wrap;rounded=0;fontSize=19;" parent="1" vertex="1">
          <mxGeometry x="1490" y="-2280" width="60" height="30" as="geometry" />
        </mxCell>
        <mxCell id="7nBnNuaxek-vDvKnoMcR-83" value="owns" style="text;html=1;strokeColor=none;fillColor=none;align=center;verticalAlign=middle;whiteSpace=wrap;rounded=0;fontSize=14;" parent="1" vertex="1">
          <mxGeometry x="2060" y="-2400" width="60" height="30" as="geometry" />
        </mxCell>
        <mxCell id="7nBnNuaxek-vDvKnoMcR-84" value="realizes" style="text;html=1;strokeColor=none;fillColor=none;align=center;verticalAlign=middle;whiteSpace=wrap;rounded=0;fontSize=14;" parent="1" vertex="1">
          <mxGeometry x="2050" y="-2098" width="60" height="30" as="geometry" />
        </mxCell>
        <mxCell id="7nBnNuaxek-vDvKnoMcR-85" value="" style="endArrow=diamondThin;endFill=1;endSize=24;html=1;rounded=0;exitX=0.445;exitY=-0.002;exitDx=0;exitDy=0;exitPerimeter=0;" parent="1" source="7nBnNuaxek-vDvKnoMcR-39" edge="1">
          <mxGeometry width="160" relative="1" as="geometry">
            <mxPoint x="2040.0049999999999" y="-1760" as="sourcePoint" />
            <mxPoint x="2040.01" y="-1830" as="targetPoint" />
          </mxGeometry>
        </mxCell>
        <mxCell id="7nBnNuaxek-vDvKnoMcR-86" value="owns" style="text;html=1;strokeColor=none;fillColor=none;align=center;verticalAlign=middle;whiteSpace=wrap;rounded=0;fontSize=14;" parent="1" vertex="1">
          <mxGeometry x="2040" y="-1780" width="60" height="30" as="geometry" />
        </mxCell>
        <mxCell id="7nBnNuaxek-vDvKnoMcR-87" value="uses" style="endArrow=open;endSize=12;dashed=1;html=1;rounded=0;fontSize=14;exitX=-0.014;exitY=0.114;exitDx=0;exitDy=0;exitPerimeter=0;" parent="1" source="7nBnNuaxek-vDvKnoMcR-39" edge="1">
          <mxGeometry x="0.0408" y="-19" width="160" relative="1" as="geometry">
            <mxPoint x="1866.5" y="-1660.55" as="sourcePoint" />
            <mxPoint x="1710" y="-1860" as="targetPoint" />
            <mxPoint as="offset" />
          </mxGeometry>
        </mxCell>
        <mxCell id="7nBnNuaxek-vDvKnoMcR-88" value="" style="endArrow=diamondThin;endFill=0;endSize=24;html=1;rounded=0;entryX=-0.003;entryY=0.841;entryDx=0;entryDy=0;entryPerimeter=0;" parent="1" target="7nBnNuaxek-vDvKnoMcR-9" edge="1">
          <mxGeometry width="160" relative="1" as="geometry">
            <mxPoint x="1140" y="-2039" as="sourcePoint" />
            <mxPoint x="1350" y="-2040" as="targetPoint" />
          </mxGeometry>
        </mxCell>
        <mxCell id="7nBnNuaxek-vDvKnoMcR-89" value="has" style="text;html=1;strokeColor=none;fillColor=none;align=center;verticalAlign=middle;whiteSpace=wrap;rounded=0;fontSize=19;" parent="1" vertex="1">
          <mxGeometry x="1190" y="-2075.5" width="60" height="30" as="geometry" />
        </mxCell>
        <mxCell id="7nBnNuaxek-vDvKnoMcR-90" value="&#xa;JpaRepository" style="swimlane;startSize=50;fontStyle=1;fontSize=14;" parent="1" vertex="1">
          <mxGeometry x="1140" y="-1340" width="190" height="80" as="geometry" />
        </mxCell>
        <mxCell id="7nBnNuaxek-vDvKnoMcR-91" value="&amp;lt;&amp;lt;interface&amp;gt;&amp;gt;" style="text;html=1;strokeColor=none;fillColor=none;align=center;verticalAlign=middle;whiteSpace=wrap;rounded=0;fontSize=14;" parent="7nBnNuaxek-vDvKnoMcR-90" vertex="1">
          <mxGeometry x="70" width="60" height="30" as="geometry" />
        </mxCell>
        <mxCell id="7nBnNuaxek-vDvKnoMcR-92" value="&lt;p style=&quot;line-height: 86%;&quot;&gt;&lt;font style=&quot;font-size: 14px;&quot;&gt;&amp;lt;&amp;lt;interface&amp;gt;&amp;gt;&lt;/font&gt;&lt;/p&gt;&lt;p style=&quot;line-height: 86%;&quot;&gt;&lt;font style=&quot;font-size: 14px;&quot;&gt;&lt;b&gt;DetailPrescriptionRepository&amp;lt;DetailPrescription, String&amp;gt;&lt;/b&gt;&lt;br&gt;&lt;/font&gt;&lt;/p&gt;" style="swimlane;fontStyle=0;childLayout=stackLayout;horizontal=1;startSize=50;fillColor=none;horizontalStack=0;resizeParent=1;resizeParentMax=0;resizeLast=0;collapsible=1;marginBottom=0;html=1;strokeWidth=3;" parent="1" vertex="1">
          <mxGeometry x="110" y="-1640" width="450" height="274" as="geometry">
            <mxRectangle x="960" y="620" width="160" height="60" as="alternateBounds" />
          </mxGeometry>
        </mxCell>
        <mxCell id="5s_oKDHctYmKp3dNpC3K-3" value="" style="line;html=1;strokeWidth=3;align=left;verticalAlign=middle;spacingTop=-1;spacingLeft=3;spacingRight=3;rotatable=0;labelPosition=right;points=[];portConstraint=eastwest;" vertex="1" parent="7nBnNuaxek-vDvKnoMcR-92">
          <mxGeometry y="50" width="450" height="60" as="geometry" />
        </mxCell>
        <mxCell id="7nBnNuaxek-vDvKnoMcR-94" value="+ delete (String id): void" style="text;strokeColor=none;fillColor=none;align=left;verticalAlign=top;spacingLeft=4;spacingRight=4;overflow=hidden;rotatable=0;points=[[0,0.5],[1,0.5]];portConstraint=eastwest;whiteSpace=wrap;html=1;fontSize=14;" parent="7nBnNuaxek-vDvKnoMcR-92" vertex="1">
          <mxGeometry y="110" width="450" height="26" as="geometry" />
        </mxCell>
        <mxCell id="7nBnNuaxek-vDvKnoMcR-93" value="+ findById (String id): DetailPrescription" style="text;strokeColor=none;fillColor=none;align=left;verticalAlign=top;spacingLeft=4;spacingRight=4;overflow=hidden;rotatable=0;points=[[0,0.5],[1,0.5]];portConstraint=eastwest;whiteSpace=wrap;html=1;fontSize=14;" parent="7nBnNuaxek-vDvKnoMcR-92" vertex="1">
          <mxGeometry y="136" width="450" height="26" as="geometry" />
        </mxCell>
        <mxCell id="7nBnNuaxek-vDvKnoMcR-95" value="+ save (DetailPrescription detailPrescription): void" style="text;strokeColor=none;fillColor=none;align=left;verticalAlign=top;spacingLeft=4;spacingRight=4;overflow=hidden;rotatable=0;points=[[0,0.5],[1,0.5]];portConstraint=eastwest;whiteSpace=wrap;html=1;fontSize=14;" parent="7nBnNuaxek-vDvKnoMcR-92" vertex="1">
          <mxGeometry y="162" width="450" height="26" as="geometry" />
        </mxCell>
        <mxCell id="7nBnNuaxek-vDvKnoMcR-96" value="+ update (DetailPrescription detailPrescription): void" style="text;strokeColor=none;fillColor=none;align=left;verticalAlign=top;spacingLeft=4;spacingRight=4;overflow=hidden;rotatable=0;points=[[0,0.5],[1,0.5]];portConstraint=eastwest;whiteSpace=wrap;html=1;fontSize=14;" parent="7nBnNuaxek-vDvKnoMcR-92" vertex="1">
          <mxGeometry y="188" width="450" height="86" as="geometry" />
        </mxCell>
        <mxCell id="7nBnNuaxek-vDvKnoMcR-97" value="is" style="endArrow=block;endSize=16;endFill=0;html=1;rounded=0;fontSize=16;exitX=1.014;exitY=0.366;exitDx=0;exitDy=0;exitPerimeter=0;" parent="1" edge="1" source="7nBnNuaxek-vDvKnoMcR-96">
          <mxGeometry x="0.0381" y="20" width="160" relative="1" as="geometry">
            <mxPoint x="500.5999999999999" y="-1419.9979999999998" as="sourcePoint" />
            <mxPoint x="1250" y="-1345.03" as="targetPoint" />
            <mxPoint as="offset" />
            <Array as="points">
              <mxPoint x="1230" y="-1345.03" />
            </Array>
          </mxGeometry>
        </mxCell>
        <mxCell id="7nBnNuaxek-vDvKnoMcR-98" value="" style="endArrow=diamondThin;endFill=1;endSize=24;html=1;rounded=0;exitX=0.488;exitY=-0.006;exitDx=0;exitDy=0;exitPerimeter=0;" parent="1" source="7nBnNuaxek-vDvKnoMcR-77" edge="1">
          <mxGeometry width="160" relative="1" as="geometry">
            <mxPoint x="329.9949999999999" y="-2320" as="sourcePoint" />
            <mxPoint x="330" y="-2390" as="targetPoint" />
          </mxGeometry>
        </mxCell>
        <mxCell id="7nBnNuaxek-vDvKnoMcR-99" value="owns" style="text;html=1;strokeColor=none;fillColor=none;align=center;verticalAlign=middle;whiteSpace=wrap;rounded=0;fontSize=14;" parent="1" vertex="1">
          <mxGeometry x="330.45000000000005" y="-2360" width="60" height="30" as="geometry" />
        </mxCell>
        <mxCell id="7nBnNuaxek-vDvKnoMcR-100" value="" style="endArrow=diamondThin;endFill=1;endSize=24;html=1;rounded=0;exitX=0.486;exitY=-0.002;exitDx=0;exitDy=0;exitPerimeter=0;" parent="1" source="7nBnNuaxek-vDvKnoMcR-92" edge="1">
          <mxGeometry width="160" relative="1" as="geometry">
            <mxPoint x="330" y="-1673" as="sourcePoint" />
            <mxPoint x="330" y="-1770" as="targetPoint" />
          </mxGeometry>
        </mxCell>
        <mxCell id="7nBnNuaxek-vDvKnoMcR-101" value="owns" style="text;html=1;strokeColor=none;fillColor=none;align=center;verticalAlign=middle;whiteSpace=wrap;rounded=0;fontSize=14;" parent="1" vertex="1">
          <mxGeometry x="330.45000000000005" y="-1720" width="60" height="30" as="geometry" />
        </mxCell>
        <mxCell id="7nBnNuaxek-vDvKnoMcR-102" value="" style="endArrow=block;dashed=1;endFill=0;endSize=12;html=1;rounded=0;exitX=0.482;exitY=0.006;exitDx=0;exitDy=0;exitPerimeter=0;entryX=0.486;entryY=0.962;entryDx=0;entryDy=0;entryPerimeter=0;" parent="1" source="7nBnNuaxek-vDvKnoMcR-70" edge="1" target="7nBnNuaxek-vDvKnoMcR-81">
          <mxGeometry width="160" relative="1" as="geometry">
            <mxPoint x="326.95000000000005" y="-2028" as="sourcePoint" />
            <mxPoint x="330" y="-2040" as="targetPoint" />
          </mxGeometry>
        </mxCell>
        <mxCell id="7nBnNuaxek-vDvKnoMcR-103" value="realizes" style="text;html=1;strokeColor=none;fillColor=none;align=center;verticalAlign=middle;whiteSpace=wrap;rounded=0;fontSize=14;" parent="1" vertex="1">
          <mxGeometry x="370" y="-2045.5" width="43.95" height="46" as="geometry" />
        </mxCell>
        <mxCell id="7nBnNuaxek-vDvKnoMcR-104" value="uses" style="endArrow=open;endSize=12;dashed=1;html=1;rounded=0;fontSize=14;exitX=1;exitY=0.5;exitDx=0;exitDy=0;entryX=0;entryY=0.02;entryDx=0;entryDy=0;entryPerimeter=0;" parent="1" source="7nBnNuaxek-vDvKnoMcR-73" target="7nBnNuaxek-vDvKnoMcR-55" edge="1">
          <mxGeometry x="0.0408" y="-19" width="160" relative="1" as="geometry">
            <mxPoint x="654" y="-2039.55" as="sourcePoint" />
            <mxPoint x="490" y="-2040" as="targetPoint" />
            <mxPoint as="offset" />
          </mxGeometry>
        </mxCell>
        <mxCell id="7nBnNuaxek-vDvKnoMcR-105" value="uses" style="endArrow=open;endSize=12;dashed=1;html=1;rounded=0;fontSize=14;exitX=1;exitY=0.5;exitDx=0;exitDy=0;entryX=0;entryY=0.02;entryDx=0;entryDy=0;entryPerimeter=0;" parent="1" edge="1">
          <mxGeometry x="0.0408" y="-19" width="160" relative="1" as="geometry">
            <mxPoint x="560" y="-2149" as="sourcePoint" />
            <mxPoint x="690" y="-2150" as="targetPoint" />
            <mxPoint as="offset" />
          </mxGeometry>
        </mxCell>
        <mxCell id="7nBnNuaxek-vDvKnoMcR-106" value="uses" style="endArrow=open;endSize=12;dashed=1;html=1;rounded=0;fontSize=14;exitX=1;exitY=0.5;exitDx=0;exitDy=0;entryX=0;entryY=1;entryDx=0;entryDy=0;" parent="1" target="7nBnNuaxek-vDvKnoMcR-45" edge="1">
          <mxGeometry x="0.0408" y="-19" width="160" relative="1" as="geometry">
            <mxPoint x="560" y="-1599" as="sourcePoint" />
            <mxPoint x="690" y="-1600" as="targetPoint" />
            <mxPoint as="offset" />
          </mxGeometry>
        </mxCell>
      </root>
    </mxGraphModel>
  </diagram>
</mxfile>
